<?xml version="1.0" encoding="UTF-8"?>
<!DOCTYPE svg PUBLIC "-//W3C//DTD SVG 1.1//EN" "http://www.w3.org/Graphics/SVG/1.1/DTD/svg11.dtd">
<svg xmlns="http://www.w3.org/2000/svg" xmlns:xlink="http://www.w3.org/1999/xlink" version="1.1" width="56px" height="46px" viewBox="-0.5 -0.5 56 46" style="background-color: rgb(255, 255, 255);"><defs/><g><path d="M 3 13 C 3 7.48 7.48 3 13 3 L 43 3 C 48.52 3 53 7.48 53 13 L 53 33 C 53 38.52 48.52 43 43 43 L 13 43 C 7.48 43 3 38.52 3 33 L 3 13 Z" fill="rgb(255, 255, 255)" stroke="none" pointer-events="all"/><path d="M 6 14.5 L 6 31.5 C 6 36.19 9.81 40 14.5 40 L 41.5 40 C 46.19 40 50 36.19 50 31.5 L 50 14.5 C 50 9.81 46.19 6 41.5 6 L 14.5 6 C 9.81 6 6 9.81 6 14.5" fill="none" stroke="none" pointer-events="all"/><path d="M 3 13 C 3 7.48 7.48 3 13 3 L 43 3 C 48.52 3 53 7.48 53 13 L 53 33 C 53 38.52 48.52 43 43 43 L 13 43 C 7.48 43 3 38.52 3 33 L 3 13 Z M 6 31.5 C 6 36.19 9.81 40 14.5 40 L 41.5 40 C 46.19 40 50 36.19 50 31.5 L 50 14.5 C 50 9.81 46.19 6 41.5 6 L 14.5 6 C 9.81 6 6 9.81 6 14.5 L 6 31.5 Z" fill="none" stroke="rgb(0, 0, 0)" stroke-width="2" stroke-miterlimit="10" pointer-events="all"/></g></svg>